<svg width="56" height="56" viewBox="0 0 56 56" fill="none" xmlns="http://www.w3.org/2000/svg">
<path d="M52.2812 27.0362V26.4721C52.2812 20.7566 50.2485 15.2011 46.5577 10.8291C42.9112 6.50988 37.8621 3.58016 32.3403 2.57948C31.7454 2.47186 31.1767 2.86637 31.0691 3.46072C30.9614 4.05517 31.3558 4.62425 31.9503 4.73198C42.4633 6.63708 50.0938 15.7801 50.0938 26.4721V26.8011H47.9062V26.4721C47.9062 15.4958 38.9763 6.56588 28 6.56588C17.0237 6.56588 8.09375 15.4958 8.09375 26.4721V26.8003H5.90625V26.4721C5.90625 15.6413 13.6523 6.47794 24.3248 4.68397C24.9204 4.58378 25.3222 4.01973 25.222 3.42397C25.1218 2.82831 24.5588 2.42603 23.962 2.52666C18.3705 3.46662 13.2478 6.37524 9.53761 10.7168C5.78539 15.1077 3.71875 20.7031 3.71875 26.4721V27.0353C1.56723 27.7016 0 29.7099 0 32.0774V39.4606C0 42.3704 2.36731 44.7378 5.27713 44.7378H8.34761C8.92303 45.6878 9.96669 46.3241 11.1561 46.3241C12.9654 46.3241 14.4374 44.8522 14.4374 43.0429V28.496C14.4374 26.6867 12.9654 25.2148 11.1561 25.2148C10.867 25.2148 10.5866 25.2527 10.3194 25.3233C10.9137 16.0866 18.6158 8.75338 28 8.75338C37.3842 8.75338 45.0863 16.0866 45.6805 25.3233C45.4132 25.2527 45.1328 25.2148 44.8438 25.2148C43.0345 25.2148 41.5625 26.6867 41.5625 28.496V31.2266C41.5625 31.8305 42.0523 32.3203 42.6562 32.3203C43.2602 32.3203 43.75 31.8305 43.75 31.2266V28.496C43.75 27.8929 44.2407 27.4023 44.8438 27.4023C45.4468 27.4023 45.9375 27.8929 45.9375 28.496V42.6596V43.0429C45.9375 43.646 45.4468 44.1366 44.8438 44.1366C44.2407 44.1366 43.75 43.646 43.75 43.0429V40.5234C43.75 39.9195 43.2602 39.4297 42.6562 39.4297C42.0523 39.4297 41.5625 39.9195 41.5625 40.5234V43.0429C41.5625 44.8522 43.0345 46.3241 44.8438 46.3241C45.2272 46.3241 45.5952 46.2574 45.9375 46.136V46.8489C45.9375 48.0331 44.974 48.9966 43.7898 48.9966H33.7557C33.2876 47.4782 31.8714 46.3716 30.2014 46.3716H25.8264C23.7758 46.3716 22.1076 48.0398 22.1076 50.0904C22.1076 52.1409 23.7758 53.8091 25.8264 53.8091H30.2014C31.8714 53.8091 33.2876 52.7026 33.7557 51.1841H43.7898C46.1802 51.1841 48.125 49.2394 48.125 46.8489V44.7386H50.7229C53.6327 44.7386 56 42.3713 56 39.4615V32.0783C56 29.7107 54.4328 27.7025 52.2812 27.0362ZM7.875 42.5503H5.27713C3.5735 42.5503 2.1875 41.1643 2.1875 39.4606V32.0774C2.1875 30.3738 3.5735 28.9878 5.27713 28.9878H7.875V42.5503ZM11.1562 27.4023C11.7593 27.4023 12.25 27.8929 12.25 28.496V43.0429C12.25 43.646 11.7593 44.1366 11.1562 44.1366C10.5532 44.1366 10.0625 43.646 10.0625 43.0429V28.496C10.0625 27.8929 10.5532 27.4023 11.1562 27.4023ZM30.2014 51.6216H25.8264C24.982 51.6216 24.2951 50.9347 24.2951 50.0904C24.2951 49.246 24.982 48.5591 25.8264 48.5591H30.2014C31.0458 48.5591 31.7326 49.246 31.7326 50.0904C31.7326 50.9347 31.0458 51.6216 30.2014 51.6216ZM53.8125 39.4615C53.8125 41.1651 52.4265 42.5511 50.7229 42.5511H48.125V28.9886H50.7229C52.4265 28.9886 53.8125 30.3746 53.8125 32.0783V39.4615Z" fill="#00AD33"/>
<path d="M28.095 2.19103L28 2.19092C27.396 2.19092 26.9062 2.68059 26.9062 3.28467C26.9062 3.88875 27.396 4.37842 28 4.37842L28.0874 4.37853C28.0887 4.37853 28.0899 4.37853 28.0913 4.37853C28.6936 4.37853 29.1828 3.89137 29.185 3.28861C29.1872 2.68453 28.6991 2.19311 28.095 2.19103Z" fill="#00AD33"/>
<path d="M43.4294 34.9967C43.2261 34.7933 42.9439 34.6763 42.6562 34.6763C42.3686 34.6763 42.0864 34.7932 41.883 34.9967C41.6795 35.2003 41.5625 35.4824 41.5625 35.77C41.5625 36.0577 41.6794 36.3399 41.883 36.5432C42.0864 36.7467 42.3686 36.8638 42.6562 36.8638C42.9439 36.8638 43.2261 36.7467 43.4294 36.5432C43.6329 36.3399 43.75 36.0577 43.75 35.77C43.75 35.4824 43.633 35.2002 43.4294 34.9967Z" fill="#00AD33"/>
<path d="M34.361 21.4451H21.639C18.8743 21.4451 16.625 23.6944 16.625 26.459V32.8576C16.625 35.6222 18.8742 37.8716 21.639 37.8716H24.6676L27.1378 40.9543C27.3435 41.211 27.6539 41.3615 27.9829 41.364C27.9857 41.364 27.9886 41.364 27.9914 41.364C28.3172 41.364 28.6263 41.2186 28.8341 40.9674L31.3949 37.8716H34.361C37.1257 37.8716 39.375 35.6224 39.375 32.8576V26.459C39.375 23.6944 37.1258 21.4451 34.361 21.4451ZM37.1875 32.8576C37.1875 34.4162 35.9195 35.6841 34.361 35.6841H30.8802C30.5542 35.6841 30.2451 35.8295 30.0374 36.0807L28.0048 38.538L26.0462 36.0939C25.8386 35.8349 25.5246 35.6841 25.1927 35.6841H21.639C20.0805 35.6841 18.8125 34.4162 18.8125 32.8576V26.459C18.8125 24.9004 20.0805 23.6326 21.639 23.6326H34.361C35.9195 23.6326 37.1875 24.9005 37.1875 26.459V32.8576Z" fill="#00AD33"/>
<path d="M23.975 29.4318C23.7705 29.2282 23.4894 29.1113 23.2017 29.1113C22.9141 29.1113 22.6319 29.2282 22.4284 29.4318C22.2239 29.6352 22.108 29.9174 22.108 30.2051C22.108 30.4927 22.2239 30.7749 22.4284 30.9783C22.6319 31.1817 22.9141 31.2988 23.2017 31.2988C23.4894 31.2988 23.7705 31.1818 23.975 30.9783C24.1783 30.7749 24.2955 30.4927 24.2955 30.2051C24.2955 29.9174 24.1784 29.6352 23.975 29.4318Z" fill="#00AD33"/>
<path d="M28.7875 29.4318C28.5841 29.2284 28.3019 29.1113 28.0142 29.1113C27.7255 29.1113 27.4444 29.2282 27.2409 29.4318C27.0364 29.6352 26.9205 29.9174 26.9205 30.2051C26.9205 30.4927 27.0364 30.7749 27.2409 30.9783C27.4444 31.1818 27.7255 31.2988 28.0142 31.2988C28.3019 31.2988 28.5841 31.1818 28.7875 30.9783C28.9908 30.7749 29.108 30.4927 29.108 30.2051C29.108 29.9174 28.991 29.6352 28.7875 29.4318Z" fill="#00AD33"/>
<path d="M33.6 29.4318C33.3955 29.2284 33.1144 29.1113 32.8267 29.1113C32.538 29.1113 32.2569 29.2282 32.0535 29.4318C31.8489 29.6352 31.733 29.9174 31.733 30.2051C31.733 30.4938 31.8489 30.7749 32.0535 30.9783C32.2569 31.1818 32.538 31.2988 32.8267 31.2988C33.1144 31.2988 33.3955 31.1818 33.6 30.9783C33.8033 30.7749 33.9205 30.4927 33.9205 30.2051C33.9205 29.9174 33.8035 29.6352 33.6 29.4318Z" fill="#00AD33"/>
</svg>
