<svg width="56" height="56" viewBox="0 0 56 56" fill="none" xmlns="http://www.w3.org/2000/svg">
<path d="M28.0002 26.9275C31.6187 26.9275 34.5625 23.9836 34.5625 20.365C34.5625 16.7464 31.6187 13.8025 28.0002 13.8025C24.3815 13.8025 21.4375 16.7464 21.4375 20.365C21.4375 23.9836 24.3815 26.9275 28.0002 26.9275ZM28.0002 17.0837C29.8094 17.0837 31.2812 18.5557 31.2812 20.365C31.2812 22.1743 29.8094 23.6462 28.0002 23.6462C26.1908 23.6462 24.7188 22.1743 24.7188 20.365C24.7188 18.5557 26.1908 17.0837 28.0002 17.0837Z" fill="#00AD33"/>
<path d="M48.8754 37.7344H37.8952C43.0223 32.8404 47.6875 28.0432 47.6875 19.6875C47.6875 8.42931 39.2339 0 28.0002 0C16.7438 0 8.3125 8.45436 8.3125 19.6875C8.3125 28.0432 12.9778 32.8404 18.1051 37.7344H7.12458L1.12482 56H54.8752L48.8754 37.7344ZM11.5938 19.6875C11.5938 10.1811 18.4937 3.28125 28.0002 3.28125C37.5065 3.28125 44.4062 10.1811 44.4062 19.6875C44.4062 30.3229 35.4292 34.0898 28.0002 43.2494C25.7677 40.4969 23.38 38.2248 21.0582 36.0158C15.7703 30.9844 11.5938 27.0103 11.5938 19.6875ZM6.98568 48.6719H18.8125V45.3906H8.06346L9.50054 41.0156H21.4375V40.9419C25.7957 45.2636 26.9747 47.4297 28.0002 48.7213C29.0511 47.3977 30.1917 45.2767 34.5625 40.9421V41.0156H46.4996L47.9367 45.3906H37.1875V48.6719H49.0143L50.3436 52.7188H5.65644L6.98568 48.6719Z" fill="#00AD33"/>
</svg>
