<svg width="65" height="53" viewBox="0 0 65 53" fill="none" xmlns="http://www.w3.org/2000/svg">
<g clip-path="url(#clip0_9_2)">
<path d="M0 52.658V38.6463C2.25651 38.6463 4.46078 38.6256 6.71729 38.6463C10.3737 38.6463 12.2436 41.2683 12.181 43.9111C12.181 46.4709 10.3319 49.0307 6.71729 49.0307H3.98023V52.658H0ZM6.71729 45.8491C7.76197 45.8491 8.36789 44.8231 8.36789 43.8074C8.36789 42.8021 7.80376 41.828 6.71729 41.828H3.91755V45.8491H6.71729Z" fill="white"/>
<path d="M18.2714 49.3934H23.7769V52.6787H14.2912V38.667H18.2714V49.3934Z" fill="white"/>
<path d="M29.0108 50.9376L28.1437 52.6787H23.9858V52.1812L30.9643 38.5322H32.7925L39.7083 52.1812V52.6787H35.6027L34.7147 50.9376H29.0108ZM30.2957 47.8699H33.4506L31.8627 44.4914L30.2957 47.8699Z" fill="white"/>
<path d="M43.9706 48.3778C43.9706 49.3416 45.1615 49.8183 46.3838 49.8183C47.512 49.8183 48.7134 49.3416 48.7134 48.5022C48.7134 47.1652 47.021 47.103 45.9032 47.0409C43.1244 46.8854 40.3351 45.8594 40.3351 42.9368C40.3351 39.8899 43.1453 38.3561 46.248 38.3561C49.1835 38.3561 52.1609 39.9003 52.0982 42.9368H48.3791C48.3582 41.973 47.3762 41.5792 46.3107 41.5792C45.4227 41.5792 44.2422 41.7968 44.2422 42.8643C44.2422 43.8074 45.1093 44.025 46.5718 44.1701C49.8103 44.4292 52.6414 45.1339 52.6414 48.5332C52.6414 51.4765 49.5283 53.0207 46.4256 53.0207C43.208 53.0207 40.1157 51.5387 40.1888 48.3985H43.9706V48.3778Z" fill="white"/>
<path d="M53.6965 41.8694V38.667H65V41.8694H61.2809V52.6787H57.4365V41.8694H53.6965Z" fill="white"/>
<path d="M41.4843 15.2242C41.547 15.2346 41.5992 15.2346 41.6619 15.245C42.1424 15.4004 42.623 15.5662 43.0931 15.7217C43.3334 15.8046 43.5632 15.8875 43.8035 15.9704C43.8557 15.9912 43.9184 15.9912 43.9915 16.0119C44.1482 15.1932 44.2213 14.3848 44.3571 13.5868C44.378 13.5868 44.3989 13.5764 44.4198 13.5764C44.4721 13.649 44.5452 13.7111 44.587 13.7941C44.7228 14.0324 44.8481 14.2708 44.984 14.5091C45.2347 14.9341 45.4854 15.359 45.7361 15.7942C45.9868 16.2295 46.248 16.6648 46.4987 17.1001C47.0315 18.0224 47.5643 18.9448 48.0971 19.8568C48.3269 20.261 48.5672 20.6548 48.8075 21.0486C49.1 21.5461 49.3821 22.0332 49.6746 22.5307C49.9984 23.0903 50.2282 23.681 50.3954 24.3028C50.5834 24.9972 50.6357 25.7019 50.6043 26.417C50.5939 26.6554 50.5417 26.8834 50.5208 27.1218C50.4894 27.4949 50.385 27.8576 50.2596 28.21C50.1238 28.5831 49.9775 28.9562 49.779 29.3085C49.5701 29.692 49.3298 30.0651 49.0582 30.4071C48.8075 30.718 48.515 30.9978 48.2225 31.2776C47.7001 31.7647 47.0838 32.1274 46.4361 32.4176C46.0704 32.5731 45.7048 32.7285 45.3078 32.7907C44.9944 32.8425 44.6914 32.9151 44.3885 32.9773C44.2945 32.998 44.2004 32.998 44.1064 32.998C41.7141 32.998 39.3322 32.998 36.9399 32.998C36.8563 32.998 36.7623 33.0084 36.6579 33.0187C36.6474 33.1016 36.637 33.1535 36.637 33.2156C36.637 33.8167 36.637 34.4282 36.6474 35.0293C36.6474 35.0707 36.637 35.1122 36.6265 35.1433C36.522 35.1951 36.4594 35.1329 36.3862 35.0811C36.0624 34.822 35.7281 34.5733 35.4042 34.3142C34.8923 33.91 34.3805 33.5058 33.8686 33.1016C33.4402 32.7596 33.0015 32.428 32.5627 32.0964C32.2702 31.8684 31.9777 31.63 31.6852 31.3916C31.6538 31.3605 31.612 31.3502 31.5598 31.3191C31.6225 31.2362 31.6538 31.1947 31.6956 31.1533C32.0717 30.8527 32.4582 30.5522 32.8448 30.2516C33.2522 29.9303 33.6596 29.6194 34.067 29.2982C34.5058 28.9562 34.9446 28.6141 35.3833 28.2721C35.7176 28.0131 36.0519 27.7436 36.3967 27.4845C36.4489 27.4431 36.5116 27.412 36.5534 27.3912C36.6579 27.4327 36.6683 27.4845 36.6683 27.5674C36.6579 28.1685 36.6474 28.7592 36.6474 29.3603C36.6474 29.5676 36.6996 29.5987 36.9086 29.578C36.9921 29.5676 37.0757 29.5676 37.1593 29.5676C39.3531 29.5676 41.5365 29.5676 43.7303 29.5676C44.5243 29.5676 45.2242 29.2774 45.851 28.7903C46.2689 28.4691 46.5719 28.0649 46.8017 27.6089C47.1047 26.987 47.2196 26.3341 47.136 25.6501C47.0838 25.2252 46.9897 24.821 46.7808 24.4479C46.6241 24.1681 46.457 23.8987 46.3003 23.6292C46.0182 23.1421 45.7466 22.655 45.4645 22.1783C45.3183 21.9192 45.1615 21.6601 45.0048 21.4114C44.6497 20.7999 44.2945 20.1885 43.9393 19.577C43.6154 19.0277 43.2916 18.4784 42.9677 17.9292C42.6543 17.3903 42.3618 16.841 42.0484 16.3021C41.9021 16.043 41.735 15.7942 41.5783 15.5352C41.5365 15.4626 41.5052 15.3797 41.4634 15.2968C41.4634 15.2553 41.4738 15.245 41.4843 15.2242Z" fill="white"/>
<path d="M30.3271 29.6506C29.8256 30.1998 29.2615 30.6662 28.7392 31.2051C29.2929 31.7751 29.8152 32.3348 30.3793 32.9255C30.2853 32.9566 30.2226 32.9773 30.1704 32.9877C30.045 32.998 29.9301 32.9877 29.8047 32.9877C26.8588 32.9877 23.9128 32.9877 20.9668 32.9877C20.8414 32.9877 20.7265 32.9773 20.6011 32.9566C20.2459 32.8944 19.8907 32.8529 19.546 32.7493C19.1804 32.6457 18.8252 32.5109 18.4909 32.3555C18.1252 32.1793 17.7596 31.9824 17.4253 31.7544C16.903 31.402 16.4328 30.9771 16.0254 30.49C15.6389 30.0133 15.3046 29.5158 15.0539 28.9666C14.8345 28.5106 14.6778 28.0338 14.5733 27.5467C14.448 26.9767 14.3748 26.3964 14.4062 25.8056C14.4271 25.3082 14.5002 24.8107 14.636 24.3236C14.6882 24.1163 14.73 23.8987 14.8136 23.7018C14.9912 23.2976 15.1897 22.8934 15.3986 22.4996C15.6075 22.1058 15.8374 21.7223 16.0568 21.3389C16.297 20.914 16.5478 20.489 16.7985 20.0745C17.0388 19.6599 17.279 19.2454 17.5193 18.8412C17.7596 18.4267 18.0103 18.0121 18.2506 17.5872C18.3342 17.4525 18.4073 17.3074 18.4909 17.1623C18.3237 17.0587 18.1775 16.955 18.0208 16.8617C17.5924 16.613 17.1537 16.3643 16.7254 16.1156C16.694 16.0948 16.6522 16.0327 16.6522 16.0016C16.6522 15.9601 16.7045 15.9083 16.7358 15.8876C16.9343 15.8047 17.1432 15.7321 17.3417 15.6596C17.7074 15.5248 18.073 15.3797 18.4282 15.245C18.6371 15.1621 18.8461 15.0896 19.055 15.0066C19.5251 14.8305 19.9952 14.6439 20.4653 14.4677C20.9145 14.2915 21.3533 14.1154 21.8025 13.9392C21.9801 13.8666 22.1577 13.7941 22.3353 13.7319C22.3875 13.7112 22.4606 13.7215 22.5442 13.7112C22.586 13.9703 22.6278 14.2086 22.6696 14.4574C22.6905 14.561 22.6905 14.675 22.7009 14.7786C22.7636 15.2865 22.8263 15.7943 22.8994 16.3125C22.9412 16.6441 23.0039 16.9757 23.0561 17.3074C23.0979 17.5872 23.1292 17.8567 23.1606 18.1365C23.2128 18.5614 23.2651 18.9759 23.3277 19.4009C23.3486 19.5252 23.38 19.6392 23.4113 19.7532C23.4322 19.8258 23.4426 19.9087 23.3382 19.9812C23.2859 19.9605 23.2024 19.9294 23.1397 19.8879C22.6382 19.5978 22.1368 19.2972 21.6354 18.9967C21.4891 18.9138 21.4473 18.9241 21.3637 19.0692C21.1966 19.3594 21.0294 19.6392 20.8623 19.919C20.4862 20.572 20.1101 21.2352 19.734 21.8881C19.5773 22.1576 19.4102 22.4167 19.2535 22.6862C18.9401 23.2354 18.6371 23.7847 18.3133 24.3236C18.073 24.7278 17.9476 25.1631 17.8849 25.6191C17.8327 26.0025 17.8223 26.4067 17.9476 26.7902C18.0103 26.9871 18.0208 27.1944 18.1148 27.3705C18.261 27.6711 18.4282 27.9716 18.6371 28.2307C18.8669 28.5313 19.1386 28.7904 19.4624 28.9873C19.8594 29.2257 20.2773 29.4018 20.7369 29.4951C21.1444 29.578 21.5518 29.5677 21.9592 29.5677C24.644 29.5677 27.3393 29.5677 30.0241 29.5677C30.1286 29.5469 30.2331 29.5158 30.3271 29.6506Z" fill="white"/>
<path d="M24.5918 13.421C24.55 13.307 24.5082 13.2448 24.4978 13.1826C24.456 12.9442 24.4351 12.7059 24.4038 12.4675C24.3306 12.0012 24.2575 11.5451 24.1739 11.0788C24.1739 11.0477 24.153 11.0166 24.1322 10.9648C24.0486 10.9855 23.9754 10.9959 23.8919 11.0166C23.3695 11.1928 22.8472 11.369 22.3249 11.5451C22.189 11.597 22.0532 11.6488 21.907 11.6902C21.8443 11.711 21.7712 11.711 21.6458 11.7317C21.6876 11.6281 21.698 11.5659 21.7294 11.5244C22.001 11.0477 22.2831 10.5813 22.5547 10.1046C22.8367 9.60713 23.1188 9.10968 23.4113 8.61222C23.7456 8.04221 24.0799 7.48257 24.4142 6.92293C24.6649 6.49802 24.9052 6.06275 25.1559 5.62747C25.6052 4.86056 26.0544 4.08328 26.5036 3.31636C26.8483 2.74636 27.2766 2.2489 27.7781 1.80326C28.1542 1.46126 28.5616 1.16071 29.0004 0.911984C29.554 0.601072 30.1286 0.331616 30.7554 0.207252C30.9226 0.17616 31.0897 0.134706 31.2569 0.0932508C31.8941 -0.0414774 32.5314 -0.0311137 33.1686 0.0103411C33.7119 0.051796 34.2447 0.17616 34.7565 0.34198C35.1431 0.466344 35.5087 0.632164 35.8639 0.829074C36.24 1.03635 36.5952 1.29544 36.9399 1.55453C37.2533 1.78254 37.5145 2.07272 37.7757 2.3629C38.11 2.74636 38.392 3.15054 38.6532 3.58582C38.9457 4.08328 39.2278 4.57037 39.5203 5.06783C39.7815 5.52383 40.0531 5.97984 40.3142 6.43584C40.5859 6.90221 40.847 7.36857 41.1082 7.82458C41.15 7.89712 41.2022 7.9593 41.2649 8.05258C41.8813 7.71058 42.4767 7.37894 43.0826 7.0473C43.208 7.15094 43.1662 7.26494 43.1558 7.36857C43.0618 7.9904 42.9573 8.62258 42.8528 9.2444C42.8528 9.26513 42.8424 9.29622 42.8424 9.31695C42.7797 9.63823 42.717 9.94914 42.6648 10.2704C42.6021 10.6435 42.5603 11.0166 42.5081 11.3793C42.4767 11.6073 42.4245 11.8457 42.3827 12.0737C42.3409 12.3017 42.32 12.5401 42.2782 12.7681C42.2469 12.9442 42.1947 13.1204 42.1529 13.3277C40.1784 12.5193 38.2353 11.7213 36.3027 10.9233C36.3131 10.799 36.3654 10.7471 36.4489 10.7057C36.9399 10.4362 37.4414 10.1668 37.9324 9.89732C38.0264 9.8455 38.1204 9.79368 38.2353 9.72114C38.1518 9.57604 38.0786 9.44131 38.0055 9.30659C37.6817 8.74695 37.3682 8.19767 37.0444 7.63803C36.7414 7.13021 36.4385 6.62239 36.146 6.1042C35.9684 5.80365 35.8012 5.50311 35.6341 5.21292C35.2893 4.61183 34.8088 4.15582 34.2029 3.81382C33.6805 3.52364 33.1268 3.42 32.5523 3.36818C32.3642 3.34745 32.1553 3.39927 31.9673 3.43036C31.7897 3.46146 31.6121 3.52364 31.424 3.56509C30.9957 3.66873 30.6405 3.90709 30.2958 4.16619C29.8779 4.4771 29.5854 4.89165 29.3347 5.33729C29.2093 5.57565 29.0526 5.79329 28.9168 6.02129C28.5198 6.7053 28.1333 7.3893 27.7363 8.07331C27.2557 8.9024 26.7752 9.7315 26.2946 10.5606C25.8663 11.2964 25.438 12.0322 25.0097 12.7681C24.9261 12.9132 24.853 13.0582 24.759 13.193C24.7172 13.307 24.6754 13.3484 24.5918 13.421Z" fill="white"/>
<path d="M28.9899 24.1888L27.9139 26.3445H22.774V25.7227L31.4136 8.80908H33.6805L42.2469 25.7123V26.3341H37.1593L36.0415 24.1888H28.9899ZM30.5778 20.3957H34.4849L32.5209 16.2088L30.5778 20.3957Z" fill="white"/>
</g>
<defs>
<clipPath id="clip0_9_2">
<rect width="65" height="53" fill="white"/>
</clipPath>
</defs>
</svg>
