<svg width="56" height="56" viewBox="0 0 56 56" fill="none" xmlns="http://www.w3.org/2000/svg">
<path d="M54.9062 28.3359H48.1745C47.2492 27.0197 45.8589 26.0874 44.273 25.7406L39.4645 24.6892C41.4322 23.3621 42.729 21.1124 42.729 18.5655V15.8949V14.6593V14.3813C42.729 10.3112 39.4178 7 35.3477 7C31.2776 7 27.9664 10.3112 27.9664 14.3813V14.6593V15.8949V18.5655C27.9664 21.1092 29.2598 23.3565 31.2234 24.6843L26.4179 25.7386C26.2126 25.7836 26.0108 25.8389 25.8125 25.9028V16.8515C25.8125 16.2475 25.3227 15.7578 24.7188 15.7578H17.2812C16.6773 15.7578 16.1875 16.2475 16.1875 16.8515C16.1875 17.4555 16.6773 17.9453 17.2812 17.9453H23.625V33.2578H16.1875V27.789C16.1875 25.9797 14.7155 24.5078 12.9062 24.5078C11.097 24.5078 9.625 25.9797 9.625 27.789V33.2578H2.1875V17.9453H8.53125C9.13522 17.9453 9.625 17.4555 9.625 16.8515C9.625 16.2475 9.13522 15.7578 8.53125 15.7578H1.09375C0.489781 15.7578 0 16.2475 0 16.8515V34.3515C0 34.9555 0.489781 35.4453 1.09375 35.4453H9.625V37.5234H9.51562C7.64597 37.5234 6.125 39.0444 6.125 40.914V41.4609H1.09375C0.489781 41.4609 0 41.9507 0 42.5546V46.9296C0 47.5336 0.489781 48.0234 1.09375 48.0234H54.9062C55.5102 48.0234 56 47.5336 56 46.9296V42.5546V38.1796V33.8046V29.4296C56 28.8257 55.5102 28.3359 54.9062 28.3359ZM48.254 41.4609H42V39.2734H53.8125V41.4609H48.254ZM53.8125 37.0859H42V34.8984H53.8125V37.0859ZM53.8125 32.7109H42V30.5234H47.5643C47.5676 30.5234 47.5709 30.524 47.5741 30.524C47.5775 30.524 47.581 30.5234 47.5844 30.5234H53.8125V32.7109ZM30.1538 14.3814C30.1538 11.5175 32.4838 9.18761 35.3476 9.18761C38.0746 9.18761 40.3175 11.3001 40.5256 13.9746L37.9831 12.4809C37.5225 12.2102 36.9339 12.312 36.5908 12.7214C35.4832 14.0432 33.8589 14.8014 32.1344 14.8014H30.1539V14.6595V14.3814H30.1538ZM30.1538 16.9888H32.1344C34.1934 16.9888 36.1484 16.2036 37.6255 14.8078L40.5415 16.521V18.5656C40.5415 21.4295 38.2115 23.7594 35.3477 23.7594C32.4839 23.7594 30.1539 21.4294 30.1539 18.5656V16.9888H30.1538ZM37.0611 25.744L35.3313 30.3699L33.5984 25.7357C34.1595 25.8727 34.7449 25.9469 35.3476 25.9469C35.9376 25.9469 36.5108 25.8754 37.0611 25.744ZM24.7188 35.4453C25.3227 35.4453 25.8125 34.9555 25.8125 34.3515V28.2678C26.1499 28.0899 26.5097 27.958 26.8866 27.8753L31.6706 26.8257L34.3069 33.8757C34.4667 34.3031 34.875 34.5863 35.3313 34.5863C35.7876 34.5863 36.1959 34.3031 36.3557 33.8756L38.9921 26.8252L43.8058 27.8777C44.2283 27.97 44.6293 28.1264 44.9982 28.3358H40.9062C40.3023 28.3358 39.8125 28.8256 39.8125 29.4295V33.8045V38.1795V41.4608H23.5352V35.4452H24.7188V35.4453ZM21.3477 35.4453V41.4609H19.6875V40.914C19.6875 39.0444 18.1665 37.5234 16.2969 37.5234H16.1875V35.4453H21.3477ZM11.8125 27.789C11.8125 27.1859 12.3032 26.6953 12.9062 26.6953C13.5093 26.6953 14 27.1859 14 27.789V37.5234H11.8125V27.789ZM8.3125 40.914C8.3125 40.2507 8.85227 39.7109 9.51562 39.7109H10.7188H15.0938H16.2969C16.9602 39.7109 17.5 40.2507 17.5 40.914V41.4609H8.3125V40.914ZM53.8125 45.8359H2.1875V43.6484H53.8125V45.8359Z" fill="#00AD33"/>
<path d="M12.133 16.0783C11.9295 16.2817 11.8125 16.5639 11.8125 16.8516C11.8125 17.1392 11.9294 17.4214 12.133 17.6247C12.3364 17.8282 12.6186 17.9453 12.9062 17.9453C13.1939 17.9453 13.4761 17.8283 13.6794 17.6247C13.883 17.4214 14 17.1392 14 16.8516C14 16.5639 13.883 16.2817 13.6794 16.0783C13.4761 15.8748 13.1939 15.7578 12.9062 15.7578C12.6186 15.7578 12.3364 15.8747 12.133 16.0783Z" fill="#00AD33"/>
</svg>
